<?xml version="1.0" standalone="no"?>
<!DOCTYPE svg PUBLIC "-//W3C//DTD SVG 20010904//EN"
 "http://www.w3.org/TR/2001/REC-SVG-20010904/DTD/svg10.dtd">
<svg version="1.0" xmlns="http://www.w3.org/2000/svg"
 width="1765.000000pt" height="505.000000pt" viewBox="0 0 1765.000000 505.000000"
 preserveAspectRatio="xMidYMid meet">

<g transform="translate(0.000000,505.000000) scale(0.100000,-0.100000)"
fill="#000000" stroke="none">
<path d="M1590 4330 c-353 -44 -643 -165 -885 -371 -245 -206 -425 -523 -494
-867 -98 -487 -13 -1006 222 -1359 196 -294 510 -500 888 -582 283 -61 668
-51 979 25 86 22 222 67 239 80 2 2 -11 59 -28 126 -18 68 -37 139 -42 159
l-9 37 -59 -24 c-211 -85 -542 -124 -796 -93 -450 55 -782 314 -924 722 -62
177 -75 267 -75 522 -1 200 2 244 21 341 54 264 157 467 320 629 217 215 513
325 878 325 194 0 413 -39 556 -99 l69 -29 20 67 c10 36 32 110 49 164 l29 99
-43 18 c-84 36 -201 68 -325 90 -143 24 -464 35 -590 20z"/>
<path d="M3137 4274 c-67 -21 -131 -86 -151 -155 -20 -66 -20 -102 -1 -165 31
-106 118 -167 236 -166 155 1 248 94 249 248 0 185 -152 293 -333 238z"/>
<path d="M9465 4045 c-5 -2 -90 -25 -187 -51 l-178 -47 0 -268 0 -269 -175 0
-175 0 0 -155 0 -155 175 0 175 0 0 -667 c0 -687 5 -790 41 -923 82 -303 340
-441 726 -389 43 5 104 17 136 26 l59 16 -7 121 c-8 161 -13 189 -31 182 -7
-3 -60 -10 -116 -16 -184 -18 -283 16 -345 119 -57 94 -56 89 -60 839 l-4 692
291 0 290 0 0 155 0 155 -290 0 -290 0 0 320 c0 325 0 327 -35 315z"/>
<path d="M5065 3445 c-221 -40 -423 -169 -540 -343 -24 -35 -45 -60 -48 -55
-2 4 -8 73 -11 153 -4 80 -10 160 -13 178 l-5 32 -180 0 -180 0 7 -32 c4 -18
9 -525 12 -1125 l5 -1093 204 0 204 0 0 723 c0 802 -2 776 67 917 51 105 160
214 263 263 97 46 179 61 288 54 197 -13 336 -112 412 -293 58 -139 60 -176
60 -955 l0 -709 206 0 205 0 -4 773 c-3 673 -6 782 -20 847 -73 328 -228 529
-483 626 -136 51 -303 66 -449 39z"/>
<path d="M7416 3450 c-365 -58 -648 -288 -791 -644 -122 -302 -137 -690 -39
-991 123 -373 401 -611 799 -685 166 -30 448 -21 660 21 102 21 311 84 319 97
4 7 -58 279 -66 287 -3 3 -33 -7 -69 -21 -133 -54 -257 -75 -474 -81 -181 -5
-209 -3 -290 16 -238 57 -410 204 -495 423 -29 76 -60 229 -60 301 l0 37 789
0 788 0 6 68 c31 323 -59 654 -238 883 -96 122 -267 228 -435 269 -97 24 -310
34 -404 20z m246 -294 c254 -46 417 -262 442 -588 l5 -68 -594 0 -595 0 0 28
c0 50 39 184 75 261 76 159 166 256 299 322 118 57 224 70 368 45z"/>
<path d="M3020 2285 l0 -1125 205 0 205 0 0 1125 0 1125 -205 0 -205 0 0
-1125z"/>
</g>
</svg>
